<?xml version="1.0" encoding="UTF-8"?>
<!DOCTYPE svg PUBLIC "-//W3C//DTD SVG 1.1//EN" "http://www.w3.org/Graphics/SVG/1.1/DTD/svg11.dtd">
<svg xmlns="http://www.w3.org/2000/svg" xmlns:xlink="http://www.w3.org/1999/xlink" version="1.1" width="1023px" height="419px" viewBox="-0.5 -0.5 1023 419"><defs/><g><rect x="370" y="0" width="200" height="60" rx="9" ry="9" fill="#000000" stroke="#000000" transform="translate(2,3)" opacity="0.25"/><rect x="370" y="0" width="200" height="60" rx="9" ry="9" fill="#ffffff" stroke="#000000" pointer-events="all"/><g fill="#000000" font-family="Helvetica" font-weight="bold" text-anchor="middle" font-size="14px"><text x="469.5" y="35.5">Web Application</text></g><path d="M 470 200 L 470 244.67 Q 470 254.67 470 264.67 L 470 342.53" fill="none" stroke="#000000" stroke-width="4" stroke-miterlimit="10" pointer-events="stroke"/><path d="M 470 350.03 L 465 340.03 L 470 342.53 L 475 340.03 Z" fill="#000000" stroke="#000000" stroke-width="4" stroke-miterlimit="10" pointer-events="all"/><rect x="360" y="140" width="220" height="60" rx="9" ry="9" fill="#000000" stroke="#000000" transform="translate(2,3)" opacity="0.25"/><rect x="360" y="140" width="220" height="60" rx="9" ry="9" fill="#ffffff" stroke="#000000" pointer-events="all"/><g fill="#000000" font-family="Helvetica" font-weight="bold" text-anchor="middle" font-size="14px"><text x="469.5" y="175.5">API</text></g><rect x="0" y="250" width="200" height="60" rx="9" ry="9" fill="#000000" stroke="none" transform="translate(2,3)" opacity="0.25"/><rect x="0" y="250" width="200" height="60" rx="9" ry="9" fill="#10739e" stroke="none" pointer-events="all"/><g fill="#FFFFFF" font-family="Helvetica" font-weight="bold" text-anchor="middle" font-size="14px"><text x="99.5" y="285.5">Auth</text></g><rect x="240" y="250" width="200" height="60" rx="9" ry="9" fill="#000000" stroke="none" transform="translate(2,3)" opacity="0.25"/><rect x="240" y="250" width="200" height="60" rx="9" ry="9" fill="#10739e" stroke="none" pointer-events="all"/><g fill="#FFFFFF" font-family="Helvetica" font-weight="bold" text-anchor="middle" font-size="14px"><text x="339.5" y="285.5">Friends</text></g><rect x="570" y="250" width="200" height="60" rx="9" ry="9" fill="#000000" stroke="none" transform="translate(2,3)" opacity="0.25"/><rect x="570" y="250" width="200" height="60" rx="9" ry="9" fill="#10739e" stroke="none" pointer-events="all"/><g fill="#FFFFFF" font-family="Helvetica" font-weight="bold" text-anchor="middle" font-size="14px"><text x="669.5" y="285.5">Channels</text></g><path d="M 470 60 L 470 90 Q 470 100 470 110 L 470 125.53" fill="none" stroke="#23445d" stroke-width="4" stroke-miterlimit="10" pointer-events="stroke"/><path d="M 470 135.53 L 465 125.53 L 475 125.53 Z" fill="#23445d" stroke="#23445d" stroke-width="4" stroke-miterlimit="10" pointer-events="all"/><path d="M 470 200 L 470 216.67 Q 470 226.67 460 226.67 L 350 226.67 Q 340 226.67 340 231.1 L 340 235.53" fill="none" stroke="#23445d" stroke-width="4" stroke-miterlimit="10" pointer-events="stroke"/><path d="M 340 245.53 L 335 235.53 L 345 235.53 Z" fill="#23445d" stroke="#23445d" stroke-width="4" stroke-miterlimit="10" pointer-events="all"/><path d="M 470 200 L 470 216.67 Q 470 226.67 460 226.67 L 110 226.67 Q 100 226.67 100 231.1 L 100 235.53" fill="none" stroke="#23445d" stroke-width="4" stroke-miterlimit="10" pointer-events="stroke"/><path d="M 100 245.53 L 95 235.53 L 105 235.53 Z" fill="#23445d" stroke="#23445d" stroke-width="4" stroke-miterlimit="10" pointer-events="all"/><path d="M 470 200 L 470 216.67 Q 470 226.67 480 226.67 L 660 226.67 Q 670 226.67 670 231.1 L 670 235.53" fill="none" stroke="#23445d" stroke-width="4" stroke-miterlimit="10" pointer-events="stroke"/><path d="M 670 245.53 L 665 235.53 L 675 235.53 Z" fill="#23445d" stroke="#23445d" stroke-width="4" stroke-miterlimit="10" pointer-events="all"/><rect x="818" y="250" width="200" height="60" rx="9" ry="9" fill="#000000" stroke="none" transform="translate(2,3)" opacity="0.25"/><rect x="818" y="250" width="200" height="60" rx="9" ry="9" fill="#10739e" stroke="none" pointer-events="all"/><g fill="#FFFFFF" font-family="Helvetica" font-weight="bold" text-anchor="middle" font-size="14px"><text x="917.5" y="285.5">Notifications</text></g><path d="M 470 202 L 470 214.5 Q 470 224.5 480 224.5 L 918 224.5 Q 928 224.5 928 228.26 L 928 232.03" fill="none" stroke="#23445d" stroke-width="4" stroke-miterlimit="10" pointer-events="stroke"/><path d="M 928 242.03 L 923 232.03 L 933 232.03 Z" fill="#23445d" stroke="#23445d" stroke-width="4" stroke-miterlimit="10" pointer-events="all"/><rect x="370" y="354.5" width="200" height="60" rx="9" ry="9" fill="#000000" stroke="none" transform="translate(2,3)" opacity="0.25"/><rect x="370" y="354.5" width="200" height="60" rx="9" ry="9" fill="#10739e" stroke="none" pointer-events="all"/><g fill="#FFFFFF" font-family="Helvetica" font-weight="bold" text-anchor="middle" font-size="14px"><text x="469.5" y="390">Preferences</text></g></g></svg>